<?xml version="1.0" encoding="utf-8"?>
<!-- Generator: Adobe Illustrator 25.4.1, SVG Export Plug-In . SVG Version: 6.00 Build 0)  -->
<svg version="1.1" xmlns="http://www.w3.org/2000/svg" xmlns:xlink="http://www.w3.org/1999/xlink" x="0px" y="0px"
	 viewBox="0 0 2048 2048" style="enable-background:new 0 0 2048 2048;" xml:space="preserve">
<style type="text/css">
	.st0{display:none;}
	.st1{display:inline;fill:#30B7CE;stroke:#231F20;stroke-miterlimit:10;}
	.st2{display:inline;}
	.st3{fill:#FFFFFF;}
	.st4{font-family:'Pico-WhiteAl';}
	.st5{font-size:238.6509px;}
	.st6{display:inline;fill:#FFFFFF;}
	.st7{fill:#1364A0;}
	.st8{fill:#00AEEF;}
	.st9{clip-path:url(#SVGID_00000142863567725096653850000015132871535848199308_);fill:#FEFFE1;}
	.st10{opacity:0.28;clip-path:url(#SVGID_00000142863567725096653850000015132871535848199308_);fill:#C1B9AD;}
	.st11{fill:#FBB040;stroke:#FFF200;stroke-miterlimit:10;}
	.st12{fill:#FBB040;}
	.st13{fill:#BB4300;}
	.st14{fill:#252023;}
	.st15{fill:#F4FFFC;}
	.st16{fill:#1C75BC;}
	.st17{fill:#36CDEF;}
</style>
<g id="Layer_1" class="st0">
	<rect class="st1" width="2048" height="2048"/>
</g>
<g id="text" class="st0">
	<g class="st2">
		<text transform="matrix(1 0 0 1 351.5596 1576.7314)" class="st3 st4 st5">ELON TWEET</text>
	</g>
</g>
<g id="text_copy">
	<g>
		<g>
			<path class="st3" d="M557.51,1604.18c-23.63,0-42.96-19.33-42.96-42.96v-93.55c0-23.87,19.33-43.2,42.96-43.2
				c23.63,0,42.96,19.57,42.96,43.2v93.55C600.47,1584.85,581.14,1604.18,557.51,1604.18z M573.26,1467.67
				c0-8.59-7.16-15.75-15.75-15.75s-15.51,7.16-15.51,15.75v93.55c0,8.59,6.92,15.51,15.51,15.51s15.75-6.92,15.75-15.51V1467.67z"
				/>
			<path class="st3" d="M685.43,1604.18c-40.81,0-73.98-33.41-73.98-74.22c0-40.57,33.17-73.98,73.98-73.98s73.98,33.41,73.98,73.98
				C759.41,1570.77,726.23,1604.18,685.43,1604.18z M685.43,1483.42c-25.77,0-46.54,21-46.54,46.54c0,25.77,20.76,46.77,46.54,46.77
				s46.54-21,46.54-46.77C731.96,1504.42,711.2,1483.42,685.43,1483.42z M685.43,1545.47c-8.35,0-15.27-6.92-15.27-15.51
				c0-8.35,6.92-15.27,15.27-15.27s15.27,6.92,15.27,15.27C700.7,1538.55,694.02,1545.47,685.43,1545.47z"/>
			<path class="st3" d="M874.2,1604.18c-11.69,0-22.91-5.01-31.02-13.6c-8.11,8.59-19.33,13.6-31.02,13.6
				c-23.63,0-42.96-19.33-42.96-43.2v-31.02c0-40.81,33.17-73.98,73.98-73.98c40.81,0,73.98,33.17,73.98,73.98v31.26
				C917.15,1584.85,897.82,1604.18,874.2,1604.18z M889.71,1529.96c0-25.54-20.76-46.54-46.54-46.54
				c-25.77,0-46.54,20.76-46.54,46.54v31.02c0,8.83,6.92,15.75,15.51,15.75s15.75-6.92,15.75-15.75v-31.02
				c0-8.35,6.92-15.27,15.27-15.27c8.35,0,15.27,6.92,15.27,15.27v31.26c0,8.59,7.16,15.51,15.75,15.51s15.51-6.92,15.51-15.51
				V1529.96z"/>
			<path class="st3" d="M1059.62,1604.18h-11.46c-40.81,0-73.98-33.17-73.98-73.98v-62.53c0-23.63,19.33-42.96,43.19-42.96
				c19.57,0,35.08,12.41,40.57,31.02h1.67c23.63,0,42.96,19.33,42.96,42.96c0,11.93-5.01,23.15-13.84,31.26
				c8.59,8.11,13.84,19.33,13.84,31.02C1102.58,1584.85,1083.25,1604.18,1059.62,1604.18z M1059.62,1545.47h-11.46
				c-8.35,0-15.27-6.92-15.27-15.27v-15.75h26.73c8.59,0,15.51-6.92,15.51-15.75c0-8.59-6.92-15.51-15.51-15.51h-26.73v-15.51
				c0-8.59-6.92-15.51-15.51-15.51c-8.83,0-15.75,6.92-15.75,15.51v62.53c0,25.54,20.76,46.54,46.54,46.54h11.46
				c8.59,0,15.51-6.92,15.51-15.75C1075.13,1552.39,1068.21,1545.47,1059.62,1545.47z"/>
			<path class="st3" d="M1248.87,1604.18c-10.74,0-21.24-2.62-31.02-7.16c-9.78,4.53-20.29,7.16-31.02,7.16
				c-40.81,0-73.98-33.17-73.98-73.98v-31.26c0-23.62,19.33-42.96,42.96-42.96c11.93,0,23.15,5.01,31.26,13.6
				c7.88-8.59,19.09-13.6,30.79-13.6c11.69,0,22.91,5.01,31.02,13.36c8.11-8.35,19.09-13.36,31.02-13.36
				c23.63,0,42.96,19.33,42.96,42.96v31.26C1322.85,1570.77,1289.68,1604.18,1248.87,1604.18z M1295.41,1498.93
				c0-8.59-6.92-15.51-15.51-15.51c-8.59,0-15.75,6.92-15.75,15.51v31.26c0,8.35-6.92,15.27-15.27,15.27s-15.27-6.92-15.27-15.27
				v-31.26c0-8.59-7.16-15.51-15.75-15.51c-6.2,0-12.17,3.82-14.56,9.55c-0.72,1.91-1.19,4.06-1.19,6.2v31.02
				c0,8.35-6.92,15.27-15.27,15.27c-8.35,0-15.27-6.92-15.27-15.27v-31.26c0-8.59-7.16-15.75-15.75-15.75
				c-8.59,0-15.51,7.16-15.51,15.75v31.26c0,25.54,20.76,46.54,46.54,46.54c11.46,0,22.43-4.3,31.02-11.93
				c8.59,7.64,19.57,11.93,31.02,11.93c25.77,0,46.54-21,46.54-46.54V1498.93z"/>
			<path class="st3" d="M1437.64,1604.18h-30.79c-40.81,0-74.22-33.17-74.22-73.98s33.17-74.22,73.98-74.22
				c34.6,0,64.44,23.86,72.07,57.51c0.72,3.1,1.43,6.44,1.43,9.78c0,6.44-1.91,12.65-5.01,18.38c3.1,5.97,5.49,12.65,5.49,19.33
				C1480.6,1584.85,1461.27,1604.18,1437.64,1604.18z M1453.16,1560.98c0-8.59-6.92-15.51-15.51-15.51h-30.79
				c-8.35,0-15.51-6.92-15.51-15.27c0-8.59,6.92-15.51,15.27-15.51c7.64,0,12.89,5.01,15.04,11.93c2.15,7.16,7.4,12.17,15.27,12.17
				c8.59,0,15.75-6.92,15.75-15.75c0-1.19,0-2.15-0.24-3.34c-5.01-21.24-23.63-36.28-45.58-36.28c-25.77,0-46.78,21-46.78,46.78
				c0,25.54,20.76,46.54,46.54,46.54h30.79c8.59,0,15.51-6.92,15.51-15.75H1453.16z"/>
			<path class="st3" d="M1594.67,1604.18h-30.79c-40.81,0-74.22-33.17-74.22-73.98s33.17-74.22,73.98-74.22
				c34.6,0,64.44,23.86,72.07,57.51c0.72,3.1,1.43,6.44,1.43,9.78c0,6.44-1.91,12.65-5.01,18.38c3.1,5.97,5.49,12.65,5.49,19.33
				C1637.63,1584.85,1618.3,1604.18,1594.67,1604.18z M1610.18,1560.98c0-8.59-6.92-15.51-15.51-15.51h-30.79
				c-8.35,0-15.51-6.92-15.51-15.27c0-8.59,6.92-15.51,15.27-15.51c7.64,0,12.89,5.01,15.04,11.93c2.15,7.16,7.4,12.17,15.27,12.17
				c8.59,0,15.75-6.92,15.75-15.75c0-1.19,0-2.15-0.24-3.34c-5.01-21.24-23.63-36.28-45.58-36.28c-25.77,0-46.78,21-46.78,46.78
				c0,25.54,20.76,46.54,46.54,46.54h30.79c8.59,0,15.51-6.92,15.51-15.75H1610.18z"/>
			<path class="st3" d="M1732.37,1604.18h-11.46c-40.81,0-73.98-33.17-73.98-73.98v-62.53c0-23.63,19.33-42.96,43.19-42.96
				c19.57,0,35.08,12.41,40.57,31.02h1.67c23.63,0,42.96,19.33,42.96,42.96c0,11.93-5.01,23.15-13.84,31.26
				c8.59,8.11,13.84,19.33,13.84,31.02C1775.33,1584.85,1756,1604.18,1732.37,1604.18z M1732.37,1545.47h-11.46
				c-8.35,0-15.27-6.92-15.27-15.27v-15.75h26.73c8.59,0,15.51-6.92,15.51-15.75c0-8.59-6.92-15.51-15.51-15.51h-26.73v-15.51
				c0-8.59-6.92-15.51-15.51-15.51c-8.83,0-15.75,6.92-15.75,15.51v62.53c0,25.54,20.76,46.54,46.54,46.54h11.46
				c8.59,0,15.51-6.92,15.51-15.75C1747.88,1552.39,1740.96,1545.47,1732.37,1545.47z"/>
		</g>
	</g>
	<g>
		<path class="st3" d="M448.69,1434.75c9,0,16.25,7.25,16.25,16.5c0,9-7.25,16.25-16.25,16.25h-12c-8.75,0-16,7.25-16,16v0.5v6h28
			c9,0,16.25,7.25,16.25,16.5s-7.25,16.5-16.25,16.5h-28v6v0.5c0,8.75,7.25,16,16,16h12c9,0,16.25,7.25,16.25,16.25
			c0,9.25-7.25,16.5-16.25,16.5h-12c-27,0-48.75-22-48.75-48.75v-0.5v-45v-0.5c0-26.75,21.75-48.75,48.75-48.75H448.69
			 M448.69,1408.75h-12c-41.22,0-74.75,33.53-74.75,74.75v0.5v45v0.5c0,41.22,33.53,74.75,74.75,74.75h12
			c11.36,0,22.01-4.44,29.98-12.49c7.91-8,12.27-18.65,12.27-30.01c0-10.49-3.84-20.1-10.19-27.49c6.6-7.69,10.19-17.44,10.19-27.76
			s-3.6-20.06-10.19-27.76c6.35-7.39,10.19-17.01,10.19-27.49c0-11.35-4.36-22.01-12.27-30.01
			C470.7,1413.19,460.05,1408.75,448.69,1408.75L448.69,1408.75z"/>
	</g>
</g>
<g id="bird" class="st0">
	<path class="st6" d="M1423.55,1020.6c62.7-25.84,83.93-59.62,91.77-72.16c12.78-20.43-19.53-76.36-19.53-76.36
		s102.97-23.92,119.9-80.8c14.78-49.64-83.29-76.68-83.29-76.68s50.61,8.38,91.38-19.59c40.77-27.97,62.18-90.33,51.3-101.12
		c-9.29-9.21-93.83,16.81-258.28,23.65c30.74-25.17,75.8-69.33,70.41-108.36c-4.73-34.29-149.64-9.05-149.64-9.05
		s52.28-33.42,73.6-77.16c21.32-43.74,8.33-108.24-6.62-112.47c-14.96-4.23-259.64,180.83-356.9,234.87
		c-45.97,25.55-83.62,52.37-113.29,79.58c-39.87-28.24-78.82-53.97-115.84-66c-68.04-22.12-138.45-16.18-203.41,36.2
		c-53.36,43.03-82.56,89.19-71.48,142.56l-265.2,84.17l311.76,4.15c20.77,30.78,44.59,64.38,65.84,89.27
		c1.13,85.81,34.13,170.03,50.26,203.82c28.54,59.77,151.97,177.4,289.92,176.67c188.1-1,364.74-56.12,364.74-56.12
		s55.18,31.37,150.79,46.15c76.75,11.87,77.94-36.03,77.94-36.03s55.08,18.48,85.14-0.18
		C1683.96,1243.96,1518.35,1169.25,1423.55,1020.6z"/>
</g>
<g id="bird_copy">
	<path class="st7" d="M946.79,928.38c0,0,170.72,63.6,314.06-32.76s140.03-177.41,146.73-200.34c6.7-22.93-53.96-57.24-53.96-57.24
		s102.36-70.23,94.53-128.86c-4.58-34.29-144.8-9.05-144.8-9.05s50.59-33.42,71.22-77.16s8.06-108.24-6.41-112.47
		s-251.25,180.83-345.37,234.87C785.72,681.53,777.36,853.89,946.79,928.38z"/>
	<path class="st8" d="M1369.63,990.76c-34.32-66.35-136.57-233.46-316.1-293.23c-21.6-7.19-42.4-12.43-62.35-16.07
		c-65.54-44.39-130.43-102.45-190.11-122.5c-65.84-22.12-133.98-16.18-196.84,36.2c-67.88,56.56-95.39,118.55-46.99,195.21
		c23.62,37.4,57.58,89.83,86.59,124.95c1.09,85.81,33.03,170.03,48.64,203.82c27.62,59.77,147.06,177.4,280.55,176.67
		c182.03-1,352.95-56.12,352.95-56.12s53.4,31.37,145.91,46.15c74.27,11.87,75.42-36.03,75.42-36.03s53.3,18.48,82.39-0.18
		C1639.12,1243.59,1456.81,1159.28,1369.63,990.76z"/>
	<g>
		<defs>
			<path id="SVGID_1_" d="M1369.63,990.76c-34.32-66.35-136.57-233.46-316.1-293.23c-21.6-7.19-42.4-12.43-62.35-16.07
				c-65.54-44.39-130.43-102.45-190.11-122.5c-65.84-22.12-133.98-16.18-196.84,36.2c-67.88,56.56-95.39,118.55-46.99,195.21
				c23.62,37.4,57.58,89.83,86.59,124.95c1.09,85.81,33.03,170.03,48.64,203.82c27.62,59.77,147.06,177.4,280.55,176.67
				c182.03-1,352.95-56.12,352.95-56.12s53.4,31.37,145.91,46.15c74.27,11.87,75.42-36.03,75.42-36.03s53.3,18.48,82.39-0.18
				C1639.12,1243.59,1456.81,1159.28,1369.63,990.76z"/>
		</defs>
		<clipPath id="SVGID_00000037673883493127879410000015472395180280351933_">
			<use xlink:href="#SVGID_1_"  style="overflow:visible;"/>
		</clipPath>
		<path style="clip-path:url(#SVGID_00000037673883493127879410000015472395180280351933_);fill:#FEFFE1;" d="M617.81,930.01
			c0,0,70.14-67.88,242.09,76.93s255.66,312.23,255.66,312.23s-228.51,29.41-343.9-2.26C656.27,1285.22,617.81,930.01,617.81,930.01
			z"/>
		<path style="opacity:0.28;clip-path:url(#SVGID_00000037673883493127879410000015472395180280351933_);fill:#C1B9AD;" d="
			M592.92,776.16c0,0,58.83,70.14,81.45,83.71C697,873.45,697,873.45,697,873.45s4.25,198.47,144.8,271.5
			c230.78,119.91,438.93,18.1,438.93,18.1s67.88,38.46,142.54,72.4s124.05,14.36,124.05,14.36s108.99,28.63,161.03-9.83
			c52.04-38.46,0,190.05,0,190.05l-346.17,81.45l-635.77,52.04l-151.59-187.79l-110.86-346.17L592.92,776.16z"/>
	</g>
	<path class="st11" d="M548.93,733.17l-270.5,88.72l307.47,4.22c0,0,27.95-32.11,26.15-55.77S548.93,733.17,548.93,733.17z"/>
	<g>
		<path class="st12" d="M383.03,820.2c0,0,194.76-20.28,229.03-38.02c34.26-17.74,43.28-41.4,43.28-41.4"/>
		<path class="st13" d="M383.03,820.2c24.08-4.86,48.2-9.11,72.28-13.39c24.08-4.25,48.16-8.39,72.12-12.74l17.94-3.35
			c5.97-1.14,11.91-2.35,17.84-3.55c5.92-1.22,11.83-2.5,17.65-3.9c5.83-1.37,11.62-2.83,17.14-4.55c2.74-0.86,5.44-1.79,7.84-2.81
			c0.6-0.25,1.2-0.5,1.71-0.76l0.83-0.4l0.95-0.49c1.28-0.65,2.54-1.32,3.78-2.03c5.05-2.69,9.91-5.67,14.72-8.79
			c4.8-3.14,9.48-6.53,14.06-10.25c2.27-1.87,4.56-3.79,6.79-5.85c1.13-1.02,2.23-2.08,3.34-3.16c1.12-1.08,2.21-2.2,3.3-3.4
			c-0.21,3.25-1.06,6.44-2.17,9.5c-1.13,3.06-2.53,6.02-4.18,8.85c-3.27,5.67-7.44,10.81-12.13,15.38
			c-1.17,1.15-2.39,2.24-3.61,3.33c-1.26,1.03-2.52,2.09-3.82,3.08c-2.58,2.02-5.31,3.81-8.08,5.53c-1.4,0.84-2.81,1.64-4.24,2.41
			l-1.07,0.59c-0.36,0.2-0.82,0.41-1.23,0.61c-0.85,0.43-1.66,0.78-2.47,1.12c-3.24,1.35-6.34,2.38-9.44,3.33
			c-6.18,1.88-12.26,3.36-18.35,4.74c-6.1,1.34-12.18,2.52-18.26,3.64c-6.08,1.14-12.17,2.12-18.25,3.08
			c-6.09,0.95-12.17,1.87-18.26,2.68c-24.36,3.34-48.76,5.88-73.22,7.84c-12.23,0.95-24.46,1.81-36.71,2.44
			C407.58,819.59,395.31,820.06,383.03,820.2z"/>
	</g>
	<g id="eye_x5F_back_00000023972183330544327220000002928996114403703992_">
		<path id="eye_x5F_r_00000031204020126290887800000015446878860780409513_" class="st14" d="M741.14,674.59
			c-2.17,20.26-17.69,34.96-34.65,32.83c-16.98-2.13-28.95-20.27-26.76-40.53c2.17-20.26,17.7-34.96,34.66-32.84
			C731.35,636.2,743.32,654.34,741.14,674.59z"/>
		<path class="st15" d="M731.81,660.82c-0.79,4.83-5.61,8.03-10.76,7.17c-5.16-0.85-8.69-5.47-7.89-10.29
			c0.8-4.82,5.61-8.04,10.77-7.17C729.08,651.38,732.61,656,731.81,660.82z"/>
	</g>
	<path class="st16" d="M959.48,925.23c0,0,117.49,139.23,289.68,125.67s214.51-83.17,226.19-102.47
		c12.37-20.43-18.9-76.36-18.9-76.36s99.64-23.92,116.03-80.8c14.3-49.64-80.6-76.68-80.6-76.68s48.97,8.38,88.43-19.59
		c39.45-27.97,60.17-90.33,49.64-101.12s-121.03,26.79-338.82,25.21C964.97,616.73,848.46,777.15,959.48,925.23z"/>
	<path class="st17" d="M1008.42,944.75c-1.55-8.29,90.21,65.62,206.03,67.01c115.82,1.39,161.7-13.26,202.34-48.86
		c28.03-24.55,8.89-29.76,8.89-29.76s-40.49,54.98-209.28,53.82C1128.22,986.36,1008.42,944.75,1008.42,944.75z"/>
	<path class="st17" d="M1164.71,851.07c2.42,4.99,148.78,46.05,255.06,15.89c106.28-30.16,127.41-69.53,123.67-85.27
		c-12.18-51.35-101.46-73.73-101.46-73.73s43.42,1.76,83.37-17.61s58.77-38.3,58.77-38.3s-42.41,19.88-82.24,29.33
		s-128.16,27.01-128.16,27.01s63.12,14.41,100.13,32.23c37.01,17.82,51.72,32.89,42.87,46.44s-76.41,57.41-139.83,67.82
		C1313.47,865.26,1164.71,851.07,1164.71,851.07z"/>
</g>
<g id="Layer_2_copy" class="st0">
	<text transform="matrix(1 0 0 1 326.0067 1072.7876)" class="st2 st4 st5">ELON TWEET</text>
</g>
<g id="Layer_2_copy_2">
</g>
</svg>
